# xmcd
#
# Track frame offsets: 
#        150
#        30499
#        47209
#        83609
#        103669
#        174380
#        203923
#        243659
#        289166
#
# Disc length: 4314 seconds
#
# Revision: 0
# Processed by: cddbd v1.5.2PL0 Copyright (c) Steve Scherf et al.
# Submitted via: ExactAudioCopy v0.99pb5
#
DISCID=7610d809
DTITLE=Leszek Winder - 3B
DYEAR=2015
DGENRE=Blues
TTITLE0=01.Blues Z Serca Lasu
TTITLE1=02.Zmrok
TTITLE2=03.Milosc I Wolnosc
TTITLE3=04.Live
TTITLE4=05.Nasz Sen
TTITLE5=06.Bezdomne Psy 4
TTITLE6=07.Bezdomne Psy 3
TTITLE7=08.O Czwartej Rano
TTITLE8=09.Krazac Wokol Bluesa
EXTD=
EXTT0=
EXTT1=
EXTT2=
EXTT3=
EXTT4=
EXTT5=
EXTT6=
EXTT7=
EXTT8=
PLAYORDER=
